<svg width="25" height="24" viewBox="0 0 25 24" fill="none" xmlns="http://www.w3.org/2000/svg">
<path fill-rule="evenodd" clip-rule="evenodd" d="M5.27336 2.04373H8.64662C10.0538 2.04373 11.1815 3.19144 11.1815 4.59962V8.00182C11.1815 9.41898 10.0538 10.5567 8.64662 10.5567H5.27336C3.87616 10.5567 2.73843 9.41898 2.73843 8.00182V4.59962C2.73843 3.19144 3.87616 2.04373 5.27336 2.04373ZM5.27336 13.4905H8.64662C10.0538 13.4905 11.1815 14.6293 11.1815 16.0464V19.4486C11.1815 20.8558 10.0538 22.0035 8.64662 22.0035H5.27336C3.87616 22.0035 2.73843 20.8558 2.73843 19.4486V16.0464C2.73843 14.6293 3.87616 13.4905 5.27336 13.4905ZM20.1637 2.04373H16.7904C15.3832 2.04373 14.2555 3.19144 14.2555 4.59962V8.00182C14.2555 9.41898 15.3832 10.5567 16.7904 10.5567H20.1637C21.5609 10.5567 22.6986 9.41898 22.6986 8.00182V4.59962C22.6986 3.19144 21.5609 2.04373 20.1637 2.04373ZM16.7904 13.4905H20.1637C21.5609 13.4905 22.6986 14.6293 22.6986 16.0464V19.4486C22.6986 20.8558 21.5609 22.0035 20.1637 22.0035H16.7904C15.3832 22.0035 14.2555 20.8558 14.2555 19.4486V16.0464C14.2555 14.6293 15.3832 13.4905 16.7904 13.4905Z" fill="#959CB0"/>
</svg>
