<svg width="25" height="24" viewBox="0 0 25 24" fill="none" xmlns="http://www.w3.org/2000/svg">
<path d="M10.0467 20.7796V17.728C10.0467 16.949 10.6828 16.3175 11.4675 16.3175H14.3359C14.7128 16.3175 15.0742 16.4661 15.3406 16.7306C15.6071 16.9951 15.7568 17.3539 15.7568 17.728V20.7796C15.7544 21.1035 15.8823 21.4149 16.1122 21.6447C16.342 21.8745 16.6547 22.0038 16.981 22.0038H18.938C19.8519 22.0062 20.7293 21.6474 21.3764 21.0066C22.0235 20.3659 22.3872 19.4958 22.3872 18.5885V9.89489C22.3872 9.16196 22.06 8.46673 21.4936 7.99649L14.8364 2.71825C13.6783 1.7928 12.0191 1.82268 10.8956 2.78922L4.39024 7.99649C3.79715 8.45287 3.44267 9.15015 3.42516 9.89489V18.5796C3.42516 20.4707 4.96945 22.0038 6.87443 22.0038H8.78672C9.4643 22.0038 10.015 21.4611 10.0199 20.7885L10.0467 20.7796Z" fill="#959CB0"/>
</svg>
