<svg width="25" height="24" viewBox="0 0 25 24" fill="none" xmlns="http://www.w3.org/2000/svg">
<path fill-rule="evenodd" clip-rule="evenodd" d="M9.43713 2.04373H15.5948C18.2994 2.04373 20.485 3.1116 20.515 5.82617V20.9759C20.515 21.1455 20.475 21.3152 20.3952 21.4649C20.2655 21.7044 20.0459 21.8841 19.7764 21.9639C19.517 22.0437 19.2275 22.0038 18.988 21.8641L12.521 18.6306L6.04391 21.8641C5.89521 21.9429 5.72455 21.9938 5.55489 21.9938C4.99601 21.9938 4.54691 21.5347 4.54691 20.9759V5.82617C4.54691 3.1116 6.74251 2.04373 9.43713 2.04373ZM8.75848 9.64852H16.2735C16.7026 9.64852 17.0519 9.29822 17.0519 8.8601C17.0519 8.42098 16.7026 8.07168 16.2735 8.07168H8.75848C8.32934 8.07168 7.98004 8.42098 7.98004 8.8601C7.98004 9.29822 8.32934 9.64852 8.75848 9.64852Z" fill="#8599FF"/>
</svg>
